name Walk2.mot
datacolumns 19
datarows 10
range 1.24500000 1.25400000
endheader

                time	   L_ground_force_vx	   L_ground_force_vy	   L_ground_force_vz	   L_ground_force_px	   L_ground_force_py	   L_ground_force_pz	   R_ground_force_vx	   R_ground_force_vy	   R_ground_force_vz	   R_ground_force_px	   R_ground_force_py	   R_ground_force_pz	   L_ground_torque_x	   L_ground_torque_y	   L_ground_torque_z	   R_ground_torque_x	   R_ground_torque_y	   R_ground_torque_z	
          1.24500000	         -3.57687482	         58.12845304	         -5.27343077	         -0.00091593	          0.00000000	          0.00101480	         -0.00000000	          0.00000000	          0.00000000	          0.00000000	          0.00000000	          0.00000000	          0.00000000	          0.07062970	          0.00000000	          0.00000000	          0.00000000	          0.00000000	
          1.24600000	         -4.14600776	         63.21071939	         -5.61198747	         -0.02172270	          0.00000000	         -0.00093412	         -0.00000000	          0.00000000	          0.00000000	          0.00000000	          0.00000000	          0.00000000	          0.00000000	          0.07599418	          0.00000000	          0.00000000	          0.00000000	          0.00000000	
          1.24700000	         -4.73685751	         68.44182010	         -5.95493761	         -0.04246502	          0.00000000	         -0.00288053	         -0.00000000	          0.00000000	          0.00000000	          0.00000000	          0.00000000	          0.00000000	          0.00000000	          0.08163436	          0.00000000	          0.00000000	          0.00000000	          0.00000000	
          1.24800000	         -5.34928149	         73.81523871	         -6.30135105	         -0.06308713	          0.00000000	         -0.00481947	         -0.00000000	          0.00000000	          0.00000000	          0.00000000	          0.00000000	          0.00000000	          0.00000000	          0.08755089	          0.00000000	          0.00000000	          0.00000000	          0.00000000	
          1.24900000	         -5.98306306	         79.32338951	         -6.65020472	         -0.08353258	          0.00000000	         -0.00674597	         -0.00000000	          0.00000000	          0.00000000	          0.00000000	          0.00000000	          0.00000000	          0.00000000	          0.09374316	          0.00000000	          0.00000000	          0.00000000	          0.00000000	
          1.25000000	         -6.63790384	         84.95754087	         -7.00037764	         -0.10374441	          0.00000000	         -0.00865503	         -0.00000000	          0.00000000	          0.00000000	          0.00000000	          0.00000000	          0.00000000	          0.00000000	          0.10020916	          0.00000000	          0.00000000	          0.00000000	          0.00000000	
          1.25100000	         -7.31342322	         90.70776617	         -7.35064797	         -0.12366676	          0.00000000	         -0.01054178	         -0.00000000	          0.00000000	          0.00000000	          0.00000000	          0.00000000	          0.00000000	          0.00000000	          0.10694528	          0.00000000	          0.00000000	          0.00000000	          0.00000000	
          1.25200000	         -8.00916799	         96.56294511	         -7.69969303	         -0.14324730	          0.00000000	         -0.01240172	         -0.00000000	          0.00000000	          0.00000000	          0.00000000	          0.00000000	          0.00000000	          0.00000000	          0.11394610	          0.00000000	          0.00000000	          0.00000000	          0.00000000	
          1.25300000	         -8.72462886	        102.51081930	         -8.04609220	         -0.16243895	          0.00000000	         -0.01423086	         -0.00000000	          0.00000000	          0.00000000	          0.00000000	          0.00000000	          0.00000000	          0.00000000	          0.12120426	          0.00000000	          0.00000000	          0.00000000	          0.00000000	
          1.25400000	         -9.45925995	        108.53810189	         -8.38833184	         -0.18119998	          0.00000000	         -0.01602573	         -0.00000000	          0.00000000	          0.00000000	          0.00000000	          0.00000000	          0.00000000	          0.00000000	          0.12871059	          0.00000000	          0.00000000	          0.00000000	          0.00000000	
